<?xml version="1.0" encoding="UTF-8"?>
<svg version="1.1" xmlns="http://www.w3.org/2000/svg" width="1050" height="600">
<path d="M0 0 C0.66 0 1.32 0 2 0 C1.76216797 0.98806641 1.76216797 0.98806641 1.51953125 1.99609375 C-1.54117162 19.69293969 3.95736133 33.10947802 13 48 C14.29751999 50.14229908 15.58955432 52.28793426 16.875 54.4375 C17.42929687 55.34371094 17.98359375 56.24992187 18.5546875 57.18359375 C23.32453222 66.47834522 23.50233989 77.80345956 20.625 87.75 C19.66333082 90.60586606 18.70340418 92.44489373 17 95 C18.670625 94.01 18.670625 94.01 20.375 93 C25.76856599 90.32708234 31.20714839 89.73571613 36.98046875 91.66015625 C46.20211263 96.36258392 54.79952002 109.39856005 58 119 C55.41553845 118.36672134 52.87167534 117.67488951 50.3125 116.9375 C44.58982172 115.53080813 39.36426428 115.18160083 33.75 117.125 C26.78914905 121.87103474 22.49406938 129.77564716 18.9375 137.25 C17.39488989 140.42265562 15.79819946 142.76144044 13 145 C12.34 145 11.68 145 11 145 C11 145.66 11 146.32 11 147 C4.56970241 149.83689599 -1.58591475 150.16633541 -8.5 150.125 C-9.30042725 150.12306641 -10.10085449 150.12113281 -10.92553711 150.11914062 C-15.49538226 150.08629358 -20.00725704 149.8951264 -24.5625 149.5 C-31.24815672 148.96827526 -37.91922245 148.81697406 -44.625 148.75 C-45.66213135 148.72873047 -46.6992627 148.70746094 -47.76782227 148.68554688 C-58.1952261 148.6393166 -68.88974757 150.65503005 -78 156 C-78.495 156.99 -78.495 156.99 -79 158 C-79.66 158 -80.32 158 -81 158 C-78.5963372 150.68618109 -72.63263624 146.10180985 -66.1171875 142.33203125 C-62.79333066 140.74661104 -59.43240111 139.32804738 -56 138 C-55.22253418 137.69787598 -54.44506836 137.39575195 -53.64404297 137.08447266 C-37.42987761 130.84294471 -37.42987761 130.84294471 -32 130 C-32 129.34 -32 128.68 -32 128 C-31.195625 127.360625 -30.39125 126.72125 -29.5625 126.0625 C-26.76279268 124.18964068 -26.76279268 124.18964068 -26 121 C-25.93197033 119.27204648 -25.91504355 117.54164635 -25.9375 115.8125 C-25.94652344 114.91144531 -25.95554687 114.01039063 -25.96484375 113.08203125 C-25.97644531 112.39496094 -25.98804688 111.70789063 -26 111 C-26.66 111 -27.32 111 -28 111 C-30 108.5 -30 108.5 -32 106 C-34.84696318 103.57053841 -37.78188574 101.28766752 -40.734375 98.98828125 C-41.48203125 98.33214844 -42.2296875 97.67601562 -43 97 C-43 96.34 -43 95.68 -43 95 C-43.5878125 94.75636719 -44.175625 94.51273437 -44.78125 94.26171875 C-53.11091512 89.52495496 -58.26816244 77.51457617 -61.23046875 68.8046875 C-64.24558881 57.8155697 -60.3314902 45.91081436 -54.9921875 36.15234375 C-50.03618266 27.69078844 -50.03618266 27.69078844 -46 25 C-46.30871122 26.79232337 -46.62209064 28.58384321 -46.9375 30.375 C-47.11152344 31.37273437 -47.28554688 32.37046875 -47.46484375 33.3984375 C-48 36 -48 36 -49 38 C-49.99023735 51.31161919 -48.97519097 63.58059023 -40.39453125 74.50390625 C-37.34313017 77.77753822 -34.02472883 80.98763558 -30 83 C-30 83.66 -30 84.32 -30 85 C-28.89591797 85.37125 -28.89591797 85.37125 -27.76953125 85.75 C-24.73646059 87.11894585 -23.00209791 88.62873585 -20.6875 91 C-19.99011719 91.70125 -19.29273438 92.4025 -18.57421875 93.125 C-17 95 -17 95 -17 97 C-16.34 97 -15.68 97 -15 97 C-14.01 98.485 -14.01 98.485 -13 100 C-14.74611731 92.78271514 -17.56026605 88.88344049 -22.65234375 83.54296875 C-31.64089177 73.80662139 -39.86853586 60.40520805 -39.33984375 46.72265625 C-37.47563873 31.78758848 -29.28939139 19.59041082 -19 9 C-18.34 9.33 -17.68 9.66 -17 10 C-17.165 10.99 -17.33 11.98 -17.5 13 C-19.9100732 30.75656875 -12.02926184 46.45912154 -1.734375 60.4375 C3.28559325 67.85439003 7.40786285 76.15479363 9 85 C10.37511763 70.21748551 0.78675395 55.52512859 -7.1875 43.77734375 C-11.79902091 36.71098305 -12.10861727 29.27137136 -11 21 C-9.84799278 16.4696725 -7.99221499 12.21922675 -6 8 C-5.34 8 -4.68 8 -4 8 C-3.896875 7.4225 -3.79375 6.845 -3.6875 6.25 C-2.89103535 3.64338842 -1.80934723 2.0264689 0 0 Z M-12 102 C-11 104 -11 104 -11 104 Z " fill="#EE9F1A" transform="translate(878,41)"/>
<path d="M0 0 C9.24 0 18.48 0 28 0 C28 58.08 28 116.16 28 176 C29.98 176 31.96 176 34 176 C34 177.98 34 179.96 34 182 C24.76 182 15.52 182 6 182 C6 181.34 6 180.68 6 180 C5.18402344 180.48597656 4.36804688 180.97195313 3.52734375 181.47265625 C-0.68594908 183.29701671 -3.9118364 183.48151618 -8.4375 183.4375 C-9.16259766 183.45748047 -9.88769531 183.47746094 -10.63476562 183.49804688 C-16.19245981 183.49305344 -19.4129151 182.13489219 -24 179 C-30.02492467 172.64940373 -30.29293122 166.88617397 -30.25878906 158.52172852 C-30.2622937 157.46749695 -30.26579834 156.41326538 -30.26940918 155.3270874 C-30.27820719 151.84429325 -30.27238361 148.36170246 -30.265625 144.87890625 C-30.2669723 142.45661887 -30.26891338 140.03433175 -30.27142334 137.61204529 C-30.27437208 132.53552679 -30.2700853 127.45907868 -30.26074219 122.38256836 C-30.24935397 115.8780662 -30.25590482 109.37372921 -30.26788712 102.86923313 C-30.2751176 97.86694598 -30.27281219 92.86469792 -30.26763153 87.86240959 C-30.26629802 85.46424274 -30.26793231 83.06607232 -30.27259064 80.66790962 C-30.27767461 77.31439963 -30.26991875 73.96115619 -30.25878906 70.60766602 C-30.26283752 69.6178624 -30.26688599 68.62805878 -30.27105713 67.60826111 C-30.24072075 62.66933684 -29.94937037 58.6306163 -28 54 C-27.34 54 -26.68 54 -26 54 C-25.773125 53.401875 -25.54625 52.80375 -25.3125 52.1875 C-23.01315837 48.35526395 -19.73221721 47.25763198 -15.625 45.8125 C-7.48188676 43.98731945 -3.44860061 45.46541982 5 48 C5.33 34.14 5.66 20.28 6 6 C4.02 6 2.04 6 0 6 C0 4.02 0 2.04 0 0 Z M-9 56 C-9.60766808 59.67370615 -9.52508996 63.32317367 -9.48583984 67.0390625 C-9.48963654 68.16463562 -9.49343323 69.29020874 -9.49734497 70.44989014 C-9.50476201 74.17520906 -9.48335064 77.89975023 -9.4609375 81.625 C-9.45855368 84.21044829 -9.45764762 86.79589832 -9.4581604 89.38134766 C-9.45503039 94.80187603 -9.43893502 100.22212295 -9.41162109 105.64257812 C-9.38017098 111.90695397 -9.36962495 118.17108442 -9.3710922 124.43553352 C-9.37231359 130.46477232 -9.3618785 136.49391118 -9.34550858 142.52313232 C-9.33913636 145.08762123 -9.33520069 147.65211737 -9.33372116 150.21661377 C-9.32939276 153.79818052 -9.31190111 157.37943719 -9.29052734 160.9609375 C-9.29143372 162.02495789 -9.29234009 163.08897827 -9.29327393 164.1852417 C-9.28474396 165.16100159 -9.27621399 166.13676147 -9.26742554 167.14208984 C-9.26407385 167.98863129 -9.26072216 168.83517273 -9.25726891 169.70736694 C-8.97310889 172.23963817 -8.35442475 173.85049017 -7 176 C-4.14675563 177.42662219 -2.16545451 177.31033868 1 177 C3.87091227 175.7968721 3.87091227 175.7968721 6 173 C6.74783836 169.24559253 6.63062002 165.52997654 6.56762695 161.71386719 C6.56835709 160.56236176 6.56908722 159.41085632 6.56983948 158.22445679 C6.56635347 154.41478526 6.52744111 150.6063332 6.48828125 146.796875 C6.47895682 144.15700956 6.47183896 141.51713548 6.46684265 138.8772583 C6.45130686 132.63688762 6.41028267 126.39695532 6.3600952 120.15677762 C6.30419293 113.05168256 6.27671313 105.94656647 6.25161803 98.84130621 C6.19936613 84.22731141 6.11142939 69.61366184 6 55 C-0.11098802 51.82666325 -4.46728185 49.58699801 -9 56 Z " fill="#EE9E1A" transform="translate(554,196)"/>
<path d="M0 0 C2.82353594 2.82353594 3.25638558 6.18079872 4.25 9.9375 C6.9670032 19.64751295 10.42977936 28.09774 18 35 C18 35.66 18 36.32 18 37 C18.53625 37.268125 19.0725 37.53625 19.625 37.8125 C21.36794212 38.68397106 23.07233957 39.6336552 24.75 40.625 C29.95791048 42.82834674 33.59660898 42.91765839 38.79296875 40.93359375 C46.1605283 37.43567091 52.51187668 32.89300401 59 28 C69.48586031 20.46814646 78.89541344 15.98902025 92 17 C97.37227172 18.7231815 100.9780777 22.31237957 104 27 C110.71762202 43.48663844 103.22694533 64.30358118 96.7890625 79.94140625 C95.8914357 81.97539038 94.9517415 83.99076795 94 86 C101.36698315 81.72158023 108.70761551 77.40447116 116 73 C119.32876193 76.32876193 119.97668389 79.74093012 120.0625 84.375 C117.27483155 93.88586882 108.07732713 99.55249807 99.8515625 104.21875 C90.35406369 108.87923269 79.50456522 110.65350982 69 110 C68.85304688 109.03320312 68.70609375 108.06640625 68.5546875 107.0703125 C66.95463725 97.45516132 64.63118085 88.9897279 57.1875 82.125 C47.79612806 75.86408537 40.05948941 75.26270071 29 76 C27.89205078 76.36158203 27.89205078 76.36158203 26.76171875 76.73046875 C25 77 25 77 23.0703125 75.6640625 C5.83637403 57.59957278 -0.28406143 34.4285595 -0.0625 9.9375 C-0.05573242 8.49600586 -0.05573242 8.49600586 -0.04882812 7.02539062 C-0.03717706 4.68352578 -0.02082025 2.34179819 0 0 Z M93 86 C94 88 94 88 94 88 Z " fill="#EE9E1A" transform="translate(146,340)"/>
<path d="M0 0 C0.639375 0.70125 1.27875 1.4025 1.9375 2.125 C8.97983628 9.16733628 17.04794546 13.31213474 26.96484375 14.01953125 C36.62490702 13.95736868 44.15140519 10.76135156 51 4 C51.46019531 3.27039063 51.92039062 2.54078125 52.39453125 1.7890625 C54 0 54 0 56.5390625 -0.41796875 C70.65127449 0.63598126 82.91178313 6.39260986 94 15 C95.093125 15.70125 96.18625 16.4025 97.3125 17.125 C100.23937086 19.16700293 102.5425634 21.41654101 105 24 C105.763125 24.721875 106.52625 25.44375 107.3125 26.1875 C111.16958471 30.223984 114.57581236 34.59440293 118 39 C118.57492187 39.72058594 119.14984375 40.44117188 119.7421875 41.18359375 C121 43 121 43 121 45 C117.60996561 43.46622574 114.87971049 41.45373872 111.9375 39.1875 C102.45844683 32.2235556 91.078373 26.63521209 79 28 C74.89406344 28.64351987 71.37034357 29.55853652 68.43823242 32.64282227 C63.72944687 39.55645649 61.36374244 47.07962978 58.9375 55 C50.88368907 81.06262896 50.88368907 81.06262896 38 88 C31.72215071 89.71532313 26.71846826 89.00440496 21 86 C4.95688185 76.21761089 -0.68754455 50.86415506 -5 34 C-5.75097435 35.79125849 -6.50071462 37.58303436 -7.25 39.375 C-7.70503906 40.46296875 -8.16007812 41.5509375 -8.62890625 42.671875 C-10.18074674 46.43873567 -11.65749403 50.23119707 -13.10546875 54.0390625 C-14 56 -14 56 -16 58 C-23.23291627 53.3387873 -23.23291627 53.3387873 -25 51 C-26.75274902 39.42554026 -24.17442458 27.14359306 -17.5625 17.5 C-16.39376222 15.9853356 -15.20818099 14.48339306 -14 13 C-13.21625 11.948125 -12.4325 10.89625 -11.625 9.8125 C-8.10964593 6.04604921 -4.14013063 3.04872364 0 0 Z " fill="#EF9F1A" transform="translate(235,239)"/>
<path d="M0 0 C-0.88300781 0.53367188 -1.76601562 1.06734375 -2.67578125 1.6171875 C-14.70203189 9.02481928 -25.87860819 16.88385648 -31.375 30.375 C-32.42110982 36.44243698 -32.7995095 41.32667104 -29.23828125 46.6171875 C-23.61362804 53.07621335 -17.10249377 58.26500416 -10 63 C-10 63.66 -10 64.32 -10 65 C-9.41992188 65.268125 -8.83984375 65.53625 -8.2421875 65.8125 C-0.61445632 69.85227401 4.29380534 76.34395082 8 84 C9.86180757 90.07062104 9.32343444 95.94921619 7.16015625 101.85546875 C4.33080431 107.08548294 -0.79921594 109.80122411 -6.25 111.75 C-23.11704902 116.02435081 -39.87932406 114.86425138 -57 113 C-50.53560879 118.9417383 -43.92064082 124.59601026 -37 130 C-38.1956342 133.5869026 -39.06253655 134.10808621 -42.25 136 C-45.68873569 137.63327646 -47.45450009 138.09212302 -51.23828125 137.453125 C-65.45428719 132.30796656 -75.56390078 122.21577334 -81.96875 108.60546875 C-83.72095167 104.17850469 -84.91716813 99.63064685 -86 95 C-85.43152344 94.84144531 -84.86304688 94.68289063 -84.27734375 94.51953125 C-78.64804311 92.81852388 -74.57085718 90.71382146 -70 87 C-69.67 86.34 -69.34 85.68 -69 85 C-68.34 85 -67.68 85 -67 85 C-66.731875 84.29875 -66.46375 83.5975 -66.1875 82.875 C-65 80 -65 80 -63.4375 76.9375 C-60.36755534 70.66413483 -59.8681343 63.43191571 -61.6015625 56.64453125 C-62.60551055 53.94198422 -63.75508479 51.4041101 -65.25 48.9375 C-66.45006353 45.83733589 -65.64890446 43.18553096 -65 40 C-64.67 39.34 -64.34 38.68 -64 38 C-63.34 38 -62.68 38 -62 38 C-61.75378906 37.27554688 -61.50757813 36.55109375 -61.25390625 35.8046875 C-54.74454884 21.24481641 -36.09185475 10.82232254 -21.82983398 5.13452148 C-19.64493426 4.33361088 -17.45189137 3.56536694 -15.25 2.8125 C-14.50878906 2.55275391 -13.76757812 2.29300781 -13.00390625 2.02539062 C-3.6609581 -1.22031937 -3.6609581 -1.22031937 0 0 Z " fill="#EF9F1A" transform="translate(233,240)"/>
<path d="M0 0 C1.04031801 1.30211989 2.05412928 2.62773677 3 4 C2.57847656 4.67546875 2.15695312 5.3509375 1.72265625 6.046875 C1.17480469 6.93890625 0.62695312 7.8309375 0.0625 8.75 C-0.48277344 9.63171875 -1.02804687 10.5134375 -1.58984375 11.421875 C-5.19505971 18.01312856 -4.73975736 25.70297595 -4 33 C-1.5013044 41.04008325 2.89858116 47.4113909 10 52 C11.29685702 52.5586461 12.60918495 53.08343556 13.9375 53.5625 C17 55 17 55 17.9375 57.5 C17.958125 58.655 17.97875 59.81 18 61 C18.07154297 62.10794922 18.07154297 62.10794922 18.14453125 63.23828125 C19.06263335 85.64677318 9.85700489 105.11862411 -3.30078125 122.72265625 C-4.58547103 124.44443588 -5.80836855 126.21255282 -7 128 C-7.66 128 -8.32 128 -9 128 C-9.33 128.99 -9.66 129.98 -10 131 C-11 128 -11 128 -10.109375 125.65234375 C-9.43648437 124.30849609 -9.43648437 124.30849609 -8.75 122.9375 C-3.44108643 111.60984597 -0.81645807 100.34462032 -3.7265625 87.890625 C-5.49315382 83.03608949 -7.3587559 79.59046182 -12 77 C-16.72019854 75.48770338 -21.27030251 74.58032257 -26.1875 74 C-26.86312988 73.91806396 -27.53875977 73.83612793 -28.23486328 73.75170898 C-32.19726367 73.2827249 -36.16226647 72.88713452 -40.13671875 72.53515625 C-63.54715882 70.4509338 -63.54715882 70.4509338 -70.52734375 63.80078125 C-74.01588645 59.53495052 -75.68025393 54.95400373 -76.5625 49.5625 C-75.33375864 41.78047137 -70.91568342 34.23910965 -65 29 C-64.34 29 -63.68 29 -63 29 C-62.773125 28.38125 -62.54625 27.7625 -62.3125 27.125 C-60.62070165 24.38589791 -59.00755839 23.94975528 -56 23 C-56 22.34 -56 21.68 -56 21 C-54.0331062 19.55070983 -52.08061865 18.27241021 -50 17 C-49.24976563 16.53207031 -48.49953125 16.06414062 -47.7265625 15.58203125 C-41.97086646 12.05053952 -36.08436808 8.92567486 -30 6 C-30.85980469 5.87882812 -31.71960938 5.75765625 -32.60546875 5.6328125 C-40.7463658 4.47870496 -48.87606081 3.26852207 -57 2 C-56.57405412 0.55903414 -56.13373367 -0.87768712 -55.6875 -2.3125 C-55.32205078 -3.51326172 -55.32205078 -3.51326172 -54.94921875 -4.73828125 C-53.60753203 -7.93513972 -51.95088951 -9.48133299 -48.9375 -11.125 C-32.15532326 -16.12394626 -13.06759406 -11.47586354 0 0 Z " fill="#EF9F1A" transform="translate(357,287)"/>
<path d="M0 0 C2.7804049 1.48390248 5.50226864 3.03645725 8.21484375 4.640625 C9.03082031 5.11242187 9.84679687 5.58421875 10.6875 6.0703125 C14.80068271 8.52226268 14.80068271 8.52226268 16.21484375 9.640625 C16.21484375 10.300625 16.21484375 10.960625 16.21484375 11.640625 C16.93027344 11.87523437 17.64570313 12.10984375 18.3828125 12.3515625 C21.70634012 13.86434059 23.86279376 15.77871167 26.52734375 18.265625 C27.41035156 19.08289063 28.29335938 19.90015625 29.203125 20.7421875 C29.86699219 21.36867188 30.53085937 21.99515625 31.21484375 22.640625 C30.81652344 21.08214844 30.81652344 21.08214844 30.41015625 19.4921875 C28.48497455 11.90791783 26.62184436 4.34210205 25.21484375 -3.359375 C35.94917576 -4.1297816 35.94917576 -4.1297816 40.08984375 -1.609375 C49.14423357 12.23851531 52.43295853 25.99865289 49.5390625 42.4921875 C48.83257567 45.56590743 48.07442326 48.60651399 47.21484375 51.640625 C43.73031276 52.62681302 41.76834795 52.35132584 38.21484375 51.640625 C32.34075637 51.12535418 27.65595791 51.85696791 22.16015625 53.984375 C20.21484375 54.640625 20.21484375 54.640625 17.21484375 54.640625 C17.21484375 55.300625 17.21484375 55.960625 17.21484375 56.640625 C16.30734375 57.23875 15.39984375 57.836875 14.46484375 58.453125 C7.30825832 63.2700575 5.40504099 69.57428881 3.21484375 77.640625 C3.01395288 78.99013899 2.8394141 80.3444391 2.71484375 81.703125 C2.21484375 84.640625 2.21484375 84.640625 0.4765625 86.1953125 C-17.97523004 97.98661343 -43.39571597 95.9481417 -63.78515625 91.640625 C-68.59166362 90.32477507 -73.19952279 88.59048259 -77.78515625 86.640625 C-77.78515625 86.310625 -77.78515625 85.980625 -77.78515625 85.640625 C-76.70878906 85.66382813 -75.63242188 85.68703125 -74.5234375 85.7109375 C-60.22491872 85.9313449 -44.96698928 86.068987 -33.73828125 75.76171875 C-29.39598718 70.80943575 -28.48371484 67.88195607 -28.57421875 61.51953125 C-29.2571369 52.19896319 -32.81527771 43.14236413 -35.71533203 34.31469727 C-39.0171622 24.15740796 -40.50886025 14.98792132 -36.12890625 4.9453125 C-28.35848915 -8.38185636 -12.00473837 -5.8592552 0 0 Z " fill="#EE9E1A" transform="translate(296.78515625,365.359375)"/>
<path d="M0 0 C2.17389723 2.03334353 2.9000317 3.89137345 3.8125 6.6953125 C4.4725 6.6953125 5.1325 6.6953125 5.8125 6.6953125 C7.9991737 12.02713468 8.11471785 16.765247 8.11889648 22.42919922 C8.12722 23.39258209 8.13554352 24.35596497 8.14411926 25.34854126 C8.16815763 28.52406896 8.1769834 31.69939105 8.18359375 34.875 C8.19256393 37.08928487 8.20168585 39.30356913 8.21095276 41.51785278 C8.22742797 46.15628531 8.23514036 50.79464578 8.23803711 55.43310547 C8.2434229 61.3670249 8.28111812 67.30026426 8.32678127 73.23399162 C8.35656872 77.80659441 8.36376103 82.37903364 8.36476326 86.95172501 C8.36896125 89.13893884 8.38137854 91.32615335 8.40228081 93.51327133 C8.42923254 96.57689807 8.42435816 99.6389507 8.41186523 102.70263672 C8.42669952 103.59952209 8.44153381 104.49640747 8.45681763 105.42047119 C8.36765072 113.12598184 5.37676274 117.54493256 0.625 123.3828125 C-8.23311164 130.66614874 -16.80546648 132.08251443 -28.02246094 131.04248047 C-33.2777313 130.19978827 -38.00900329 127.94857065 -42.1875 124.6953125 C-42.88099971 123.37573667 -43.55275925 122.04413658 -44.1875 120.6953125 C-45.1775 120.3653125 -46.1675 120.0353125 -47.1875 119.6953125 C-50.71650733 112.63729785 -51.33935322 106.57307302 -51.36450195 98.85693359 C-51.37107315 97.97654419 -51.37764435 97.09615479 -51.38441467 96.18908691 C-51.40408563 93.28230697 -51.41579773 90.37557859 -51.42578125 87.46875 C-51.42985678 86.47206928 -51.4339323 85.47538857 -51.43813133 84.4485054 C-51.45896771 79.17091328 -51.47327879 73.89334696 -51.48266602 68.61572266 C-51.49371293 63.18550556 -51.52810021 57.75570019 -51.56783772 52.32562828 C-51.59407953 48.13208291 -51.60236466 43.93863444 -51.60594749 39.74501419 C-51.61079549 37.74449515 -51.62235801 35.74397991 -51.64098549 33.74354172 C-51.84233069 10.6837823 -51.84233069 10.6837823 -45.07421875 1.9765625 C-30.77659465 -9.60375116 -15.36742649 -10.04371089 0 0 Z M-29.1875 3.6953125 C-30.37626651 6.07284553 -30.32090338 7.53181021 -30.33467102 10.18536377 C-30.34182632 11.13024155 -30.34898163 12.07511932 -30.35635376 13.04862976 C-30.35904266 14.08864639 -30.36173157 15.12866302 -30.36450195 16.20019531 C-30.37107315 17.29300308 -30.37764435 18.38581085 -30.38441467 19.51173401 C-30.40418092 23.14063581 -30.41581776 26.76949616 -30.42578125 30.3984375 C-30.42985678 31.63579399 -30.4339323 32.87315048 -30.43813133 34.14800262 C-30.45685216 40.02130077 -30.47141448 45.89458568 -30.4797433 51.76790643 C-30.48951039 58.54339461 -30.51581481 65.31855564 -30.55624419 72.09392858 C-30.59007304 77.96507909 -30.60189086 83.8361201 -30.60594749 89.70735931 C-30.61082395 92.20323657 -30.62246785 94.69911007 -30.64098549 97.1949234 C-30.6652898 100.68783192 -30.66442731 104.17988466 -30.6574707 107.67285156 C-30.67028076 108.70477127 -30.68309082 109.73669098 -30.69628906 110.79988098 C-30.65337039 116.70974106 -30.22532435 120.24629526 -26.1875 124.6953125 C-22.81315834 125.84402455 -20.88244466 125.86904867 -17.4375 125.0078125 C-14.768892 123.4511245 -14.30524566 122.52938753 -13.1875 119.6953125 C-12.88959864 117.37885402 -12.88959864 117.37885402 -12.93353271 114.87536621 C-12.92789307 113.90802048 -12.92225342 112.94067474 -12.91644287 111.9440155 C-12.92049133 110.88934586 -12.92453979 109.83467621 -12.92871094 108.74804688 C-12.9252063 107.63222733 -12.92170166 106.51640778 -12.91809082 105.36677551 C-12.90928001 101.67414144 -12.91512049 97.98169856 -12.921875 94.2890625 C-12.92052817 91.72603315 -12.91858748 89.16300406 -12.91607666 86.59997559 C-12.91312627 81.22661676 -12.91722985 75.85332996 -12.92675781 70.47998047 C-12.93764194 64.27014874 -12.93411619 58.06044834 -12.923105 51.85061979 C-12.91293156 45.87372747 -12.91401331 39.89689935 -12.91986847 33.91999817 C-12.92120434 31.37783286 -12.91955944 28.83566421 -12.91490936 26.29350281 C-12.90984055 22.74310375 -12.91755967 19.19295826 -12.92871094 15.64257812 C-12.92466248 14.58790848 -12.92061401 13.53323883 -12.91644287 12.4466095 C-12.92208252 11.47926376 -12.92772217 10.51191803 -12.93353271 9.51525879 C-12.93428677 8.67609169 -12.93504082 7.83692459 -12.93581772 6.97232819 C-13.21477244 4.44857376 -13.85816864 2.84771114 -15.1875 0.6953125 C-21.11435274 -3.39217215 -24.82333645 -1.39621164 -29.1875 3.6953125 Z " fill="#EF9F1A" transform="translate(662.1875,248.3046875)"/>
<path d="M0 0 C7.26 0 14.52 0 22 0 C22.14099121 1.54679443 22.28198242 3.09358887 22.42724609 4.68725586 C22.95805903 10.50419279 23.49180228 16.32085795 24.02636719 22.13745117 C24.25599015 24.64030926 24.48485061 27.14323743 24.71289062 29.64624023 C25.85389618 42.16477268 27.02697727 54.66559869 28.55322266 67.14331055 C29.35456672 74.06070516 29.91916657 80.9987006 30.5 87.9375 C31.21851521 96.49931137 31.98178171 105.04607243 32.96484375 113.58203125 C34.3493304 125.65784524 35.30893845 137.77163252 36.32543945 149.8828125 C36.58088864 152.91683596 36.83919278 155.95060708 37.09765625 158.984375 C37.17371597 159.90313416 37.2497757 160.82189331 37.32814026 161.76849365 C37.70807423 166.22324353 38.17773572 170.59950586 39 175 C40.98 175.33 42.96 175.66 45 176 C45 177.98 45 179.96 45 182 C33.45 182 21.9 182 10 182 C10 180.02 10 178.04 10 176 C12.31 176 14.62 176 17 176 C16.86550446 175.45237 16.73100891 174.90473999 16.59243774 174.34051514 C15.325021 168.95623556 14.55631342 163.71431536 14.1484375 158.203125 C14.08467926 157.40646423 14.02092102 156.60980347 13.95523071 155.78900146 C13.82297686 154.12209994 13.69372252 152.45495786 13.56738281 150.78759766 C13.37439019 148.2419564 13.17237403 145.69715465 12.96875 143.15234375 C12.84062508 141.52347838 12.71300317 139.89457334 12.5859375 138.265625 C12.49691666 137.13269012 12.49691666 137.13269012 12.40609741 135.97686768 C12.12864223 132.29515254 12 128.69826952 12 125 C6.39 125 0.78 125 -5 125 C-6.65 141.83 -8.3 158.66 -10 176 C-8.02 176 -6.04 176 -4 176 C-4 177.98 -4 179.96 -4 182 C-10.93 182 -17.86 182 -25 182 C-25 180.02 -25 178.04 -25 176 C-22.69 176 -20.38 176 -18 176 C-17.95512451 175.37996094 -17.91024902 174.75992188 -17.86401367 174.12109375 C-16.88771142 160.75681686 -15.80332474 147.40484225 -14.5625 134.0625 C-14.45252686 132.86560547 -14.34255371 131.66871094 -14.22924805 130.43554688 C-13.43892124 122.05973495 -12.52905842 113.70022828 -11.58984375 105.33984375 C-9.95024736 90.73737013 -8.46646417 76.12072411 -7 61.5 C-5.51059018 46.65050655 -4.00475187 31.80360653 -2.375 16.96875 C-2.25189453 15.83675171 -2.12878906 14.70475342 -2.00195312 13.53845215 C-1.88529297 12.48871216 -1.76863281 11.43897217 -1.6484375 10.35742188 C-1.54708496 9.44021362 -1.44573242 8.52300537 -1.34130859 7.57800293 C-1.00462433 5.03492888 -0.50308976 2.51544879 0 0 Z M3 29 C2.89453857 30.21655273 2.78907715 31.43310547 2.68041992 32.68652344 C2.18624792 38.37465423 1.68775293 44.06240099 1.1875 49.75 C1.09729584 50.77630524 1.00709167 51.80261047 0.91415405 52.86001587 C-0.26730158 66.25837622 -1.55881386 79.63166292 -3.05908203 92.99804688 C-4.04948552 101.99664962 -4.61015302 110.95555017 -5 120 C0.61 120 6.22 120 12 120 C11.885354 118.7116626 11.77070801 117.4233252 11.65258789 116.09594727 C10.63172763 104.53543428 9.6656281 92.97135772 8.74609375 81.40234375 C8.63816221 80.04716928 8.53022149 78.69199553 8.42227173 77.33682251 C7.98032916 71.78417804 7.53926086 66.23146685 7.10180664 60.6784668 C6.88220087 57.89185824 6.66122326 55.10536495 6.43873596 52.31898499 C6.23183082 49.72706002 6.02692618 47.13497434 5.82432556 44.54270935 C5.73075272 43.37611282 5.63717987 42.2095163 5.54077148 41.00756836 C5.46020004 39.9888414 5.3796286 38.97011444 5.2966156 37.92051697 C4.99161669 34.9174568 4.52780183 31.97131029 4 29 C3.67 29 3.34 29 3 29 Z " fill="#EF9F1B" transform="translate(456,196)"/>
<path d="M0 0 C0 0.66 0 1.32 0 2 C0.59345215 2.23686523 1.1869043 2.47373047 1.79833984 2.71777344 C6.02098518 5.17700312 7.88749136 9.20969726 9.45617676 13.74145508 C11.61577876 22.71046882 10.57890892 32.60359477 10.375 41.75 C10.34486036 44.10413253 10.31749164 46.45830226 10.29296875 48.8125 C10.23243165 54.54334548 10.11496134 60.26896423 10 66 C-2.54 66 -15.08 66 -28 66 C-27.93243391 73.24355135 -27.86213312 80.48610028 -27.7644577 87.72914886 C-27.71978839 91.10204306 -27.68035528 94.47481277 -27.65356445 97.84790039 C-27.6201102 101.71791721 -27.56779748 105.58728447 -27.51171875 109.45703125 C-27.50532883 110.66647903 -27.4989389 111.87592682 -27.49235535 113.12202454 C-27.46266411 114.80342781 -27.46266411 114.80342781 -27.43237305 116.51879883 C-27.42126999 117.50697098 -27.41016693 118.49514313 -27.39872742 119.51325989 C-26.93622731 122.39773063 -26.31384546 123.27582464 -24 125 C-20.92824974 126.05086193 -19.38216464 126.11291228 -16.25 125.1875 C-13.86003838 124.20530756 -13.86003838 124.20530756 -13 122 C-12.84373424 119.52167341 -12.74186802 117.06688669 -12.68359375 114.5859375 C-12.66281265 113.85629791 -12.64203156 113.12665833 -12.62062073 112.37490845 C-12.55518083 110.04170237 -12.49626632 107.70838279 -12.4375 105.375 C-12.39430947 103.79425905 -12.35069501 102.21352961 -12.30664062 100.6328125 C-12.19870631 96.75532303 -12.09959245 92.8777487 -12 89 C-4.74 89 2.52 89 10 89 C10.79204075 113.71167127 10.79204075 113.71167127 5 122 C4.01 122.33 3.02 122.66 2 123 C1.67 123.99 1.34 124.98 1 126 C-5.6380494 131.09951085 -12.15262007 132.55998333 -20.3125 132.5625 C-21.0645874 132.56467529 -21.8166748 132.56685059 -22.59155273 132.5690918 C-31.07098703 132.31889742 -37.83336095 128.76587215 -44 123 C-49.58717455 115.96429871 -50.14966155 109.63704964 -50.16113281 100.91455078 C-50.16609772 100.00822906 -50.17106262 99.10190735 -50.17617798 98.16812134 C-50.19075391 95.17717727 -50.19759341 92.18628621 -50.203125 89.1953125 C-50.20887949 87.11172484 -50.21463718 85.0281372 -50.22039795 82.94454956 C-50.23089443 78.57842767 -50.23674619 74.21232413 -50.24023438 69.84619141 C-50.24572125 64.25871871 -50.26975927 58.67148943 -50.29820633 53.08409309 C-50.31685122 48.78090714 -50.32203926 44.47777967 -50.32357025 40.17455673 C-50.32659228 38.11492454 -50.33460558 36.05529327 -50.34775543 33.99570084 C-50.36485714 31.11169249 -50.36292572 28.2282771 -50.35644531 25.34423828 C-50.3656601 24.49829102 -50.37487488 23.65234375 -50.3843689 22.78076172 C-50.32927324 14.93237043 -47.80302029 9.30396414 -43 3 C-42.01 2.67 -41.02 2.34 -40 2 C-40 1.34 -40 0.68 -40 0 C-25.69222619 -7.6628591 -14.16675051 -7.58933063 0 0 Z M-26.95907593 3.13705444 C-29.35383731 7.4229675 -28.59267844 12.75708433 -28.48828125 17.51953125 C-28.48120651 18.73323898 -28.47413177 19.94694672 -28.46684265 21.19743347 C-28.43887889 25.06975212 -28.37613091 28.94061917 -28.3125 32.8125 C-28.28741996 35.43943223 -28.26460629 38.06638714 -28.24414062 40.69335938 C-28.18904475 47.12946462 -28.10275323 53.56448629 -28 60 C-22.72 60 -17.44 60 -12 60 C-11.87639888 52.25876697 -11.78565642 44.51810834 -11.7253418 36.77612305 C-11.70019843 34.14255773 -11.66607916 31.50906218 -11.62280273 28.87573242 C-11.5621479 25.09015691 -11.5337873 21.30550402 -11.51171875 17.51953125 C-11.48591232 16.34227982 -11.4601059 15.16502838 -11.43351746 13.95210266 C-11.22347278 7.30725361 -11.22347278 7.30725361 -14.34301758 1.7565918 C-16.90634489 -0.17339702 -16.90634489 -0.17339702 -20 -0.625 C-23.08912095 0.01856686 -24.78884895 0.83620795 -26.95907593 3.13705444 Z " fill="#EF9E1A" transform="translate(831,247)"/>
<path d="M0 0 C5.04097116 4.05422787 7.07201622 8.6397946 8 15 C8.22650954 19.5041512 8.18940443 23.99169009 8.125 28.5 C8.11597656 29.70398438 8.10695313 30.90796875 8.09765625 32.1484375 C8.07423873 35.09904497 8.03837292 38.04954913 8 41 C1.07 41 -5.86 41 -13 41 C-13.03738281 38.73640625 -13.07476563 36.4728125 -13.11328125 34.140625 C-13.15952262 31.94293681 -13.21074652 29.7454172 -13.26245117 27.54785156 C-13.2956588 26.0232166 -13.32370378 24.49845994 -13.34643555 22.97363281 C-13.38005958 20.77877046 -13.43237542 18.58501912 -13.48828125 16.390625 C-13.51446533 15.07094727 -13.54064941 13.75126953 -13.56762695 12.39160156 C-14.01104863 8.91333279 -14.61571691 7.49808473 -17 5 C-20.12290635 5.48578543 -22.99580359 5.9986012 -26 7 C-26 46.93 -26 86.86 -26 128 C-23.69 128 -21.38 128 -19 128 C-19 129.98 -19 131.96 -19 134 C-30.55 134 -42.1 134 -54 134 C-54 132.02 -54 130.04 -54 128 C-51.69 128 -49.38 128 -47 128 C-47 87.41 -47 46.82 -47 5 C-49.31 5 -51.62 5 -54 5 C-54 3.02 -54 1.04 -54 -1 C-44.76 -1 -35.52 -1 -26 -1 C-26 -0.34 -26 0.32 -26 1 C-25.278125 0.525625 -24.55625 0.05125 -23.8125 -0.4375 C-16.34609017 -4.58550546 -7.47336546 -3.83179829 0 0 Z " fill="#EE9F1B" transform="translate(748,244)"/>
<path d="M0 0 C7.6496432 4.82308882 11.44908055 10.67876819 13.9375 19.375 C15.37490555 26.94799778 12.70755867 33.8432598 8.9375 40.375 C3.67217146 46.50526957 -2.39516072 50.20294952 -10.4375 51.1875 C-19.60996623 51.75768033 -25.97789759 49.26982185 -33.0625 43.375 C-39.13227204 36.95164901 -40.49388604 29.66871298 -40.31640625 21.01953125 C-39.61894929 13.75524873 -35.43412141 7.64121601 -30.25 2.6875 C-21.105982 -3.94639541 -10.31580579 -5.31843302 0 0 Z " fill="#EE9E1A" transform="translate(196.0625,422.625)"/>
<path d="M0 0 C7.00363253 5.57107133 10.11466875 11.8258596 11.6875 20.4375 C12.302529 27.67978028 9.37707242 34.4418153 5.75 40.5625 C-1.60458508 46.99776194 -9.32009105 50.23524589 -19.14453125 49.6953125 C-27.70173137 48.29602191 -33.06222072 43.97432094 -38.65625 37.56640625 C-43.05940208 30.99405425 -42.87018397 23.82053352 -42.25 16.1875 C-41.57221741 13.41700181 -40.69806106 11.72160686 -39.25 9.1875 C-38.71375 8.176875 -38.1775 7.16625 -37.625 6.125 C-27.71758089 -6.12891311 -13.2264571 -7.37629339 0 0 Z " fill="#EE9F1A" transform="translate(399.25,289.8125)"/>
<path d="M0 0 C4.62061297 3.37788494 8.41111814 6.82223628 11 12 C11.66 12.99 12.32 13.98 13 15 C14.71918563 23.58206373 14.14018363 30.65867217 9.6875 38.1875 C4.65329373 45.60098532 -0.35334446 48.75163037 -9 51 C-16.77825448 52.43109282 -23.05883958 49.28853624 -30 46 C-30 45.34 -30 44.68 -30 44 C-30.59296875 43.76796875 -31.1859375 43.5359375 -31.796875 43.296875 C-36.31830817 40.63532214 -38.22881983 35.76680967 -40 31 C-41.26864335 23.07763279 -40.60831595 16.10772496 -36.55859375 9.12109375 C-28.15642239 -2.3134402 -12.85361024 -7.47607943 0 0 Z " fill="#EF9F1A" transform="translate(276,198)"/>
<path d="M0 0 C6.13888849 6.13888849 8.10481 12.57138186 8.4453125 21.1640625 C8.14061715 28.3871346 5.49794388 35.17609105 0.3125 40.3125 C-6.98644185 45.63940484 -13.55316875 48.18621864 -22.6875 47.3125 C-29.22706201 46.02884563 -34.01029206 44.11279236 -38.6875 39.3125 C-38.6875 38.6525 -38.6875 37.9925 -38.6875 37.3125 C-39.3475 37.3125 -40.0075 37.3125 -40.6875 37.3125 C-45.00560661 30.0692244 -46.65486394 22.95809936 -45.2109375 14.53125 C-43.21633945 7.2542549 -40.05150788 1.60450531 -33.6875 -2.6875 C-21.35837066 -8.73998168 -11.2424569 -7.05921712 0 0 Z " fill="#EF9E1A" transform="translate(349.6875,427.6875)"/>
<path d="M0 0 C6.82954464 4.31339661 12.01736988 10.97008826 13.9375 18.890625 C15.20076663 27.049222 13.59084915 34.18777851 9.0625 41.0625 C4.67084961 46.72956981 -0.61674224 49.99422313 -7.6875 51.3125 C-16.55156497 52.13843617 -23.9845077 50.80482556 -31 45.125 C-37.32938345 39.07299988 -39.33569747 33.03303421 -39.78515625 24.33984375 C-39.54311537 16.83657659 -37.0409201 9.69330332 -31.6875 4.3125 C-23.08543825 -2.16850543 -10.15714749 -4.84417803 0 0 Z " fill="#EE9F1A" transform="translate(153.6875,279.6875)"/>
<path d="M0 0 C3.22899426 -0.0875127 6.45768116 -0.14056146 9.6875 -0.1875 C11.05551758 -0.22520508 11.05551758 -0.22520508 12.45117188 -0.26367188 C21.1892514 -0.35899638 21.1892514 -0.35899638 25 3 C28.7267627 7.38730488 28.48419701 11.89022444 28.4375 17.375 C28.4674707 18.6125 28.4674707 18.6125 28.49804688 19.875 C28.49457829 24.24542101 28.24695072 27.03126909 25.72265625 30.6640625 C25.15417969 31.76492188 24.58570313 32.86578125 24 34 C25.54397533 36.90719465 25.54397533 36.90719465 26.92431641 38.82617188 C29.30288503 43.63297511 28.64569071 49.49317852 28.6875 54.75 C28.72952499 57.18235555 28.77493501 59.61465569 28.82421875 62.046875 C28.83541748 63.11776367 28.84661621 64.18865234 28.8581543 65.29199219 C28.88464874 68.09756413 28.88464874 68.09756413 30 71 C28.56510191 71.13536774 27.12652893 71.23217143 25.6875 71.3125 C24.88699219 71.37050781 24.08648438 71.42851562 23.26171875 71.48828125 C21 71 21 71 19.390625 68.89648438 C17.73883858 65.45603598 17.57214325 62.97530367 17.48828125 59.16796875 C17.43510742 57.22954102 17.43510742 57.22954102 17.38085938 55.25195312 C17.35776319 53.89714066 17.33498065 52.54232282 17.3125 51.1875 C17.27930239 49.81311883 17.24481047 48.43876829 17.20898438 47.06445312 C17.12658736 43.70971766 17.05740605 40.35524096 17 37 C15.35 36.34 13.7 35.68 12 35 C12 46.22 12 57.44 12 69 C12.66 69 13.32 69 14 69 C14 69.66 14 70.32 14 71 C9.38 71 4.76 71 0 71 C0 70.34 0 69.68 0 69 C0.99 69 1.98 69 3 69 C3 47.22 3 25.44 3 3 C2.01 3 1.02 3 0 3 C0 2.01 0 1.02 0 0 Z M12 3 C12 12.57 12 22.14 12 32 C13.65 32 15.3 32 17 32 C18.80279191 30.19720809 18.13036605 27.45952299 18.1328125 25.03125 C18.13410156 23.82082031 18.13539063 22.61039062 18.13671875 21.36328125 C18.13285156 20.08839844 18.12898437 18.81351562 18.125 17.5 C18.12886719 16.22511719 18.13273438 14.95023437 18.13671875 13.63671875 C18.13542969 12.42628906 18.13414062 11.21585937 18.1328125 9.96875 C18.13168457 8.84919922 18.13055664 7.72964844 18.12939453 6.57617188 C18.29216368 4.06858198 18.29216368 4.06858198 17 3 C15.35 3 13.7 3 12 3 Z " fill="#EE9E1B" transform="translate(752,403)"/>
<path d="M0 0 C4.62 0 9.24 0 14 0 C14 0.99 14 1.98 14 3 C13.34 3 12.68 3 12 3 C12.33 24.12 12.66 45.24 13 67 C14.32 67.66 15.64 68.32 17 69 C18.08431343 65.7470597 18.15748034 63.30033539 18.20532227 59.8762207 C18.22526749 58.61513992 18.24521271 57.35405914 18.26576233 56.05476379 C18.28274533 54.67843753 18.29962419 53.30210998 18.31640625 51.92578125 C18.33698197 50.51758725 18.3579786 49.10939935 18.37937927 47.70121765 C18.43453622 43.99739519 18.48397354 40.29351759 18.53222656 36.58959961 C18.58248821 32.80903218 18.63814992 29.02854471 18.69335938 25.24804688 C18.80086292 17.83209898 18.90232514 10.41608455 19 3 C18.01 3 17.02 3 16 3 C16 2.01 16 1.02 16 0 C20.62 0 25.24 0 30 0 C30 0.99 30 1.98 30 3 C29.34 3 28.68 3 28 3 C28.00666183 3.7383609 28.01332367 4.4767218 28.02018738 5.23745728 C28.08040979 12.21099093 28.1260309 19.18448548 28.15543652 26.15821266 C28.17106279 29.74312092 28.1922448 33.3278135 28.22631836 36.91259766 C28.25902129 40.37502525 28.27687586 43.83724596 28.28463173 47.29981613 C28.29283593 49.2573708 28.31623793 51.21484276 28.33988953 53.17227173 C28.34011612 54.37306366 28.34034271 55.57385559 28.34057617 56.81103516 C28.34723801 57.86360504 28.35389984 58.91617493 28.36076355 60.00064087 C27.93104742 63.57326616 26.87352829 65.93985883 25 69 C20.22935802 71.95779803 16.61165208 72.43459674 11.0859375 71.5859375 C8.05245605 70.73383597 6.17171685 69.239583 4 67 C2.63760924 64.27521848 2.88030042 62.13159145 2.88647461 59.08154297 C2.88658791 57.21983963 2.88658791 57.21983963 2.88670349 55.32052612 C2.8918105 53.96107951 2.8970265 52.60163331 2.90234375 51.2421875 C2.90420858 49.85499116 2.90563218 48.46779416 2.90663147 47.08059692 C2.91045152 43.42765488 2.92027745 39.77475252 2.93133545 36.12182617 C2.94156056 32.39502499 2.94613145 28.66821741 2.95117188 24.94140625 C2.96190017 17.62758606 2.97897046 10.31379859 3 3 C2.01 3 1.02 3 0 3 C0 2.01 0 1.02 0 0 Z " fill="#EE9E1B" transform="translate(431,403)"/>
<path d="M0 0 C10.56 0 21.12 0 32 0 C32 7.26 32 14.52 32 22 C29.03 22 26.06 22 23 22 C23 15.73 23 9.46 23 3 C22.34 3 21.68 3 21 3 C21 24.78 21 46.56 21 69 C21.66 69 22.32 69 23 69 C23 69.66 23 70.32 23 71 C18.38 71 13.76 71 9 71 C9 70.34 9 69.68 9 69 C9.66 69 10.32 69 11 69 C11 47.22 11 25.44 11 3 C10.34 3 9.68 3 9 3 C9 9.27 9 15.54 9 22 C6.03 22 3.06 22 0 22 C0 14.74 0 7.48 0 0 Z " fill="#EE9F1B" transform="translate(531,403)"/>
<path d="M0 0 C10.23 0 20.46 0 31 0 C31 7.26 31 14.52 31 22 C28.03 22 25.06 22 22 22 C22 15.73 22 9.46 22 3 C21.34 3 20.68 3 20 3 C20 24.78 20 46.56 20 69 C20.66 69 21.32 69 22 69 C22 69.66 22 70.32 22 71 C17.38 71 12.76 71 8 71 C8 70.34 8 69.68 8 69 C8.99 69 9.98 69 11 69 C11 47.22 11 25.44 11 3 C10.01 3 9.02 3 8 3 C8 9.27 8 15.54 8 22 C5.36 22 2.72 22 0 22 C0 14.74 0 7.48 0 0 Z " fill="#EF9F1B" transform="translate(810,403)"/>
<path d="M0 0 C3.3 0 6.6 0 10 0 C10.16604736 1.91123657 10.16604736 1.91123657 10.33544922 3.86108398 C10.75408698 8.67169623 11.17613624 13.48200453 11.59912109 18.29223633 C11.78036379 20.35856347 11.96072947 22.42496776 12.14013672 24.49145508 C13.12512968 35.82987969 14.17390747 47.13822039 15.63720703 58.42602539 C15.9977446 61.97778147 16.06373714 65.43273005 16 69 C16.66 69 17.32 69 18 69 C18 69.66 18 70.32 18 71 C13.38 71 8.76 71 4 71 C4 70.34 4 69.68 4 69 C4.99 69 5.98 69 7 69 C6.505 68.01 6.505 68.01 6 67 C5.84995027 65.6265365 5.75161994 64.2471474 5.68359375 62.8671875 C5.62075195 61.65869141 5.62075195 61.65869141 5.55664062 60.42578125 C5.51732422 59.58402344 5.47800781 58.74226563 5.4375 57.875 C5.37272461 56.60076172 5.37272461 56.60076172 5.30664062 55.30078125 C5.20045764 53.20071777 5.09971503 51.10038052 5 49 C3.02 49 1.04 49 -1 49 C-1.06058594 50.10859375 -1.12117187 51.2171875 -1.18359375 52.359375 C-1.26802951 53.8229282 -1.35267599 55.28646925 -1.4375 56.75 C-1.47681641 57.47960937 -1.51613281 58.20921875 -1.55664062 58.9609375 C-1.76147098 62.4272973 -2.0852002 65.65333026 -3 69 C-2.34 69 -1.68 69 -1 69 C-1 69.66 -1 70.32 -1 71 C-3.97 71 -6.94 71 -10 71 C-10 70.34 -10 69.68 -10 69 C-9.01 69 -8.02 69 -7 69 C-6.93006836 68.11779785 -6.86013672 67.2355957 -6.78808594 66.32666016 C-5.00990356 44.15083909 -2.74982758 22.07634683 0 0 Z M1 19 C0.34 27.91 -0.32 36.82 -1 46 C0.98 46 2.96 46 5 46 C4.72184036 42.24886972 4.42513366 38.499431 4.125 34.75 C4.04636719 33.68652344 3.96773437 32.62304688 3.88671875 31.52734375 C3.80292969 30.50253906 3.71914063 29.47773438 3.6328125 28.421875 C3.55949707 27.47924805 3.48618164 26.53662109 3.41064453 25.56542969 C3.07584167 22.65131309 3.07584167 22.65131309 1 19 Z " fill="#EF9E1A" transform="translate(653,403)"/>
<path d="M0 0 C2.97 0 5.94 0 9 0 C10.47688883 6.86703073 11.47957558 13.58712175 12.0703125 20.58203125 C12.15626678 21.55806808 12.24222107 22.53410492 12.33078003 23.53971863 C12.50989682 25.5907748 12.68622155 27.64207657 12.85986328 29.69360352 C13.12347604 32.7945731 13.39900727 35.89432123 13.67578125 38.99414062 C14.55079459 49.01754226 15.32721008 58.93041278 15 69 C15.99 69 16.98 69 18 69 C18 69.66 18 70.32 18 71 C13.38 71 8.76 71 4 71 C4 70.34 4 69.68 4 69 C4.99 69 5.98 69 7 69 C6.505 68.01 6.505 68.01 6 67 C5.84995027 65.6265365 5.75161994 64.2471474 5.68359375 62.8671875 C5.62075195 61.65869141 5.62075195 61.65869141 5.55664062 60.42578125 C5.51732422 59.58402344 5.47800781 58.74226563 5.4375 57.875 C5.37272461 56.60076172 5.37272461 56.60076172 5.30664062 55.30078125 C5.20045764 53.20071777 5.09971503 51.10038052 5 49 C2.69 49 0.38 49 -2 49 C-1.98839844 49.60585938 -1.97679687 50.21171875 -1.96484375 50.8359375 C-1.89890039 56.95924948 -2.27568567 62.92093331 -3 69 C-2.34 69 -1.68 69 -1 69 C-1 69.66 -1 70.32 -1 71 C-3.97 71 -6.94 71 -10 71 C-10 70.34 -10 69.68 -10 69 C-9.01 69 -8.02 69 -7 69 C-6.94180084 68.312547 -6.88360168 67.62509399 -6.82363892 66.91680908 C-6.26988678 60.38615776 -5.71141922 53.855928 -5.1478672 47.32611465 C-4.85841467 43.9703867 -4.57068369 40.61453099 -4.28710938 37.25830078 C-3.95896537 33.38533803 -3.62458195 29.51295495 -3.2890625 25.640625 C-3.19001617 24.455755 -3.09096985 23.27088501 -2.98892212 22.05010986 C-2.33809733 14.62539577 -1.34023594 7.33182373 0 0 Z M1 19 C0.34 27.91 -0.32 36.82 -1 46 C0.98 46 2.96 46 5 46 C4.72184036 42.24886972 4.42513366 38.499431 4.125 34.75 C4.04636719 33.68652344 3.96773437 32.62304688 3.88671875 31.52734375 C3.80292969 30.50253906 3.71914063 29.47773438 3.6328125 28.421875 C3.55949707 27.47924805 3.48618164 26.53662109 3.41064453 25.56542969 C3.07584167 22.65131309 3.07584167 22.65131309 1 19 Z " fill="#EE9E1A" transform="translate(707,403)"/>
<path d="M0 0 C4.62 0 9.24 0 14 0 C14 0.99 14 1.98 14 3 C13.34 3 12.68 3 12 3 C13.32 18.84 14.64 34.68 16 51 C17.274231 37.40322185 17.274231 37.40322185 18.54272461 23.8059082 C18.70405716 22.09584633 18.86558382 20.38580275 19.02734375 18.67578125 C19.10859497 17.79450562 19.18984619 16.91322998 19.27355957 16.00524902 C19.65972146 11.94738394 20.07777858 7.97954691 21 4 C20.34 3.67 19.68 3.34 19 3 C19 2.01 19 1.02 19 0 C21.97 0 24.94 0 28 0 C28 0.99 28 1.98 28 3 C27.01 3 26.02 3 25 3 C24.94054199 3.9283667 24.94054199 3.9283667 24.87988281 4.87548828 C23.87994475 20.12040038 22.53047471 35.30688653 20.9375 50.5 C20.84964233 51.34822327 20.76178467 52.19644653 20.67126465 53.07037354 C20.41906459 55.49528822 20.16173479 57.91959509 19.90234375 60.34375 C19.7883448 61.43893448 19.7883448 61.43893448 19.67204285 62.5562439 C19.34762335 65.52801433 18.94899223 68.15302331 18 71 C15.03 71 12.06 71 9 71 C7.89659124 68.79318248 7.75548701 67.3171171 7.55102539 64.86767578 C7.4774733 64.01142609 7.4039212 63.15517639 7.32814026 62.27297974 C7.25208054 61.33984955 7.17602081 60.40671936 7.09765625 59.4453125 C7.01503036 58.4745578 6.93240448 57.5038031 6.84727478 56.50363159 C6.58182 53.37773327 6.32187005 50.25140858 6.0625 47.125 C5.72217102 43.06492361 5.37940989 39.00505792 5.03515625 34.9453125 C4.95101471 33.95009583 4.86687317 32.95487915 4.78018188 31.92950439 C3.95526263 22.2758762 2.9973387 12.63716042 2 3 C1.34 3 0.68 3 0 3 C0 2.01 0 1.02 0 0 Z " fill="#EE9F1A" transform="translate(590,403)"/>
<path d="M0 0 C4.62 0 9.24 0 14 0 C14 0.99 14 1.98 14 3 C13.34 3 12.68 3 12 3 C12 24.78 12 46.56 12 69 C12.66 69 13.32 69 14 69 C14 69.66 14 70.32 14 71 C9.38 71 4.76 71 0 71 C0 70.34 0 69.68 0 69 C0.99 69 1.98 69 3 69 C3 47.22 3 25.44 3 3 C2.01 3 1.02 3 0 3 C0 2.01 0 1.02 0 0 Z " fill="#EF9E1B" transform="translate(489,403)"/>
<path d="M0 0 C0 0.99 0 1.98 0 3 C-1.57421875 4.54296875 -1.57421875 4.54296875 -3.6875 6.1875 C-11.2263227 12.54088945 -15.24300349 20.62065079 -16.40234375 30.390625 C-16.71334052 34.25891364 -17 38.11775828 -17 42 C-23.93 42 -30.86 42 -38 42 C-35.75 30.75 -35.75 30.75 -32.875 25.375 C-32.33617187 24.35148437 -31.79734375 23.32796875 -31.2421875 22.2734375 C-30.83226562 21.52320313 -30.42234375 20.77296875 -30 20 C-29.34 20 -28.68 20 -28 20 C-27.773125 19.443125 -27.54625 18.88625 -27.3125 18.3125 C-21.74119916 8.49639852 -10.32751275 3.1610828 0 0 Z " fill="#EE9E1A" transform="translate(841,192)"/>
</svg>
